# xmcd
#
# Track frame offsets: 
#        150
#        18573
#        35950
#        51498
#        68594
#        86122
#        100490
#        119362
#        133914
#        148176
#
# Disc length: 2288 seconds
#
# Revision: 0
# Processed by: cddbd v1.4PL0 Copyright (c) Steve Scherf et al.
# Submitted via: ExactAudioCopy v0.90a11
#
DISCID=9e08ee0a
DTITLE=Chris de Burgh - Eastern Wind
DYEAR=1900
DGENRE=
TTITLE0=The traveller
TTITLE1=The record company bash
TTITLE2=Tonight
TTITLE3=Wall of silence
TTITLE4=Flying home
TTITLE5=Shadows and lights
TTITLE6=Sailor
TTITLE7=Some things never change
TTITLE8=Tourist attraction
TTITLE9=Eastern Wind
EXTD=
EXTT0=
EXTT1=
EXTT2=
EXTT3=
EXTT4=
EXTT5=
EXTT6=
EXTT7=
EXTT8=
EXTT9=
PLAYORDER=
